<svg viewBox="0 0 1326.67 533.7" xmlns="http://www.w3.org/2000/svg"><path d="m69.14 399h-65l-2.53-2.23s-4.76-377.89 2.02-396.28h65.64c3.75 51.56-1.75 104.29 2 155.81 71.18-51.12 158.85-50.53 230.18-.25 4.75-50.24-.77-104 2.26-155 21.37-1.63 43.75-1.05 65.17-.25 3.48 131.35.88 397.2.88 397.2l-65 1.05-1.76-5.56s.06-72.39-.06-108.59c-1.15-34.68-23.76-66.27-53.84-82.45-50.2-29.7-119.51-18.48-156.42 27.09-38.82 46.58-15.43 114.35-23.54 169.46z"/><path d="m1040 121.38c11.37-.95 52.41-.77 60.37.26 1.38 7.38.29 14.75.86 22.48 33.42-21.46 53.17-27.15 93.57-25.49 81.91 5.19 139.31 79.84 131.08 160.21-14.19 105.57-138.24 163.13-224.58 97-.91 52.41 0 104.27-.32 156.71-19 2.35-38.2.3-57.32.92-3.24.3-4.61-2.32-4.25-5 .59-135.7-1.11-271.47.59-407.09zm143.4 58.62c-74.43-2.73-110.64 93.11-54.58 141.74 49.18 46.05 134.56 10.85 135.85-56.94 3.85-44.47-36.2-87.6-81.27-84.8z"/><path d="m937.29 123.92 2.41-2.85h58.73c1.85 1.44 1.7 3.14 1.73 4.75-.13 90.88.32 181.67-.19 272.55-19.62 2.13-39.53.21-59.5.84-6.8-4.33-1.82-14.18-3.9-21.3-87.81 60.09-201.84 10.57-222.51-92.91-19.55-123.9 119.65-214.51 222.49-141.16 1.06-6.56-.05-13.13.74-19.92zm-163.43 136.4c.14 57.75 58.48 97.72 112 76.62 69.83-27.15 68-127.22-2.19-152.86-52.97-18.38-109.16 19.62-109.81 76.24z"/><path d="m684.36 287.41c-1.93 2.81-3 2.81-4.78 3.15-71.89 1.17-144.47-1.72-216 1.05 12.33 62.7 110.7 75.25 144.66 24.69 22.24 1.15 46.11-2.24 67.76 1.46-17.24 46.87-62.67 77.9-111 85.32-51.3 3.58-103.94-6.78-136.44-50.36-63.31-85.39-20.16-212.1 86.82-232.29 104.74-18.18 175.91 66.82 168.98 166.98zm-65.49-50.9c-7.46-50-71.24-72.33-113.4-50.58-17.46 8.34-42.47 29.3-39.81 50.58 8.67.77 142.8.82 153.21 0z"/></svg>