<svg viewBox="0 0 1551.67 533.7" xmlns="http://www.w3.org/2000/svg"><path d="m1250.22 401.8c-6.41-4.2-7.94-10.57-7.93-17.68q0-141.6 0-283.1c-61.69 3.37-123.3 5.62-184.83 11.55-.69 90.78-.22 181.58-.14 272.36 0 7.38-2.32 12.74-8.12 16.87h-11.36c-5.3-3.21-7.19-5.51-7.93-12-.31-92.31 0-184.58-.11-276.93-32.45-1.73-64.82-.15-97.32-.75-9.16.71-19-6.26-17.21-16.13 1.16-6.61 7.84-13.27 13.53-12.3q164 .08 328.1 0c10.38-1.06 14.21 9.1 13.75 16.75q0 142.2.09 284.4c0 7.2-2.1 12.83-8 16.94z"/><path d="m1551.19 391.58c-24.3 29.78-37-21.3-46.35-37.76-13.7-28.89-26.87-57.59-41.3-86.17-20 42.17-39.13 83.33-60 124.83-9.23 16.14-34.57 3.19-26.24-12.9 22.42-47.84 46.16-94.25 69.74-141.7-11-21.93-22-44-32.51-66.14-11.76-23.68-23.66-47.29-35.38-71-4.83-8.54-.81-17.87 7.37-22.63h12.48c11.3 9.65 14.31 25.36 21.32 38 14.82 30.25 28.14 60.78 42.92 91.12 17.34-28.93 28.54-61.94 44.61-91.87 7.15-12.1 9.68-27.94 20.63-37.25h13.62c7.49 7 11.24 13.23 6 23.12-5.94 12.2-11.85 24.42-17.86 36.6-16.32 33.22-33.25 66.39-49.48 99.62 17.93 39.63 38 78.27 57.61 117.13 5.72 12.13 15.09 22.93 12.82 37z"/><path d="m-.21 83.8c51.59 4.75 125.65-18.14 158.93 32.52 21.18 33.68 20.62 106.24-11.05 133.78-32.18 29.47-79.53 17.48-119.22 20-2 36.73.77 74.84-.35 112.06.29 7.57-2.08 14.57-7.87 19.67h-20.44zm27.58 157.89c29.3-2.11 60.66 5.05 88.6-4.87 16-6.95 27.68-23.45 27.78-40.89 8.94-95.47-41.87-86.66-116.38-84.32z"/><path d="m421.38 383c23.23-100 47.62-199.4 70.62-299.63 24.44-1.33 49.22-1.07 73.69-.11 23.49 100.39 47.79 200.46 71.17 300.85 2.6 12.82-9.67 18.62-20.7 15.12-4.73-3.63-6.56-8.34-7.82-13.66-6.34-26.39-13.44-52.94-19.34-79.39-4.44-1.08-111.13-1.37-118.77-.33-9.15 28-13 57.8-21.78 86a12.36 12.36 0 0 1 -11.84 8.84q-98.5 0-196.9 0c-.69-102.51-.41-205-.12-307.52 4.42-17.7 30.07-11.56 28.12 6.52.23 90.74 0 181.29.09 272.06 50.93 4.59 102.5 9.56 153.58 11.25zm55.39-107c11.27 1.32 99.34 1.22 104.35-.14q-18.36-82.18-36.82-164.76c-10 0-19.78-.13-29.39 0-14.36 54.6-25.71 109.9-38.14 164.9z"/><path d="m880.25 159.72c-8.33 18.18-30 11.95-28.61-7.55-10.58-77.4-159.52-45.71-104.36 31.31 21.32 21.57 50.59 33 75.94 49.11 17.78 10.11 36 21.06 47.1 38.82 28.33 40.06 14.21 104.67-34.45 121.06-36.8 13.69-83.53 10.57-111.39-19.61-7.47-8.83-14.19-18.12-16.25-30-1.58-12.1-10.61-31.35 4.46-37.75 9.51-4 19.77 3.84 19.59 13.17a58.58 58.58 0 0 0 2.25 16.18c6.2 24.24 32.16 36.6 55.43 36.6 25.7 1.71 57.67-9.06 64.79-36.52 6.09-24.49-4.63-51.52-25.69-65.5-20.57-12.23-40.9-24.9-61.87-36.43-15-8.92-31.42-16.33-42-30.79-28.44-33.37-22.87-90 17.77-111 56.26-30.01 139.45-3.11 137.29 68.9z"/></svg>