<?xml version="1.0" encoding="utf-8"?>
<!-- Generator: Adobe Illustrator 25.3.1, SVG Export Plug-In . SVG Version: 6.00 Build 0)  -->
<svg version="1.1" id="Layer_1" xmlns="http://www.w3.org/2000/svg" xmlns:xlink="http://www.w3.org/1999/xlink" x="0px" y="0px"
	 viewBox="0 0 2125.7 533.7" style="enable-background:new 0 0 2125.7 533.7;" xml:space="preserve">
<g>
	<path d="M1815.6,390.2c-9.8-2.4-19.8-4.1-29.2-7.3c-29.3-10.2-47.9-35.7-48.5-67c7.4,0,14.7-0.1,22.1,0c7.2,0.2,14.4,0.7,21.4,1
		c14,30.5,41.4,41.3,73.1,29.1c10.2-3.9,15.4-10,15.3-17.9c-0.1-8.2-5.6-15.5-16.3-17.9c-18-4.1-36.4-6.8-54.6-10.4
		c-5.9-1.2-11.8-3-17.4-5.2c-21.6-8.2-35.5-23.1-37-46.8c-1.5-24.5,8.6-43.5,30.1-55.6c21-11.8,44.1-14.9,67.4-11.5
		c14.3,2.1,28.9,6.4,41.9,12.8c20.6,10.2,29.7,28.9,31.7,52.3c-15.1,0-29.5,0-44.1,0c-12.1-25.3-34.9-34.7-62.2-25.3
		c-10.3,3.5-16.3,10.1-16.4,18c-0.1,8.1,5.1,16.1,15.5,18.7c15.9,4.1,32.4,6.1,48.5,9.5c9,1.9,18.2,4,26.7,7.5
		c18.5,7.6,30.4,21.3,32.6,41.6c2.6,23-4.6,42.4-23.6,56.5c-12.4,9.2-26.7,13.6-41.7,16c-2.5,0.4-4.9,1.2-7.4,1.8
		C1834.2,390.2,1824.9,390.2,1815.6,390.2z"/>
	<path d="M2064.7,390.2c-3.3-0.9-6.5-1.8-9.8-2.6c-30.6-7.5-51.7-30.9-54.3-63.4c-1.9-23.1-1.2-46.3-1.6-69.5c-0.1-9,0-18,0-28
		c-15,0-29.7,0-44.8,0c0-14.2,0-27.4,0-41.5c14.7,0,29,0,44.4,0c0-24.2,0-47.5,0-71.5c16.7,0,32.4,0,49.1,0c0,23.5,0,46.9,0,71.1
		c24.6,0,48.2,0,72.5,0c0,14.1,0,27.2,0,41.5c-23.7,0-47.6,0-72.5,0c0,7.6,0,14.2,0,20.8c0,20-0.3,40,0.1,60
		c0.4,26,14.3,38.8,40.4,37.2c9.8-0.6,19.5-2.5,30.2-4c2.3,11,4.8,22.6,7.3,34.2c0,2.3,0,4.6,0,7c-11.6,2.9-23.2,5.8-34.8,8.7
		C2082.1,390.2,2073.4,390.2,2064.7,390.2z"/>
	<path d="M1433.7,303.9c-50.1,0-99.6,0-149.1,0c0.3,15.6,13.8,32.3,31.3,38.6c18.7,6.7,47.7,8.2,64.6-14c16.5,0,33.2,0,51.1,0
		c-2.2,10.6-7.4,19.2-14,26.7c-24.6,27.9-56.6,35.6-92.1,32.4c-25.4-2.3-47.3-12.9-65.6-31.5c-6.1,4.3-11.7,8.6-17.7,12.5
		c-32.8,21.3-68.1,24.9-104.8,12.7c-32.2-10.7-48-38.9-41.1-70.9c5-23.5,22.1-34.4,43.6-39.7c9.5-2.3,19.5-3.1,29.3-3.3
		c21.4-0.5,42.8-0.1,64.1-0.1c2.7-21.4-7.6-38.9-25.2-43.7c-25.8-7.2-46.7,2.2-56.3,25.7c-15.6,0-31.4,0-48.2,0
		c0.2-12.9,3.9-24.5,11.1-34.7c16.5-23.5,40.8-32.5,68.1-34.5c31.1-2.3,59.4,4.7,81.1,28.9c37.3-34.8,96.5-34.7,129.5-12.5
		C1427.4,219.2,1441.5,263.4,1433.7,303.9z M1234.7,303.6c-19.8,0-39.5-0.1-59.2,0.1c-6.1,0-12.2,0.1-18.1,1.3
		c-16.1,3.2-21.3,19-10,30.8c4,4.2,9.8,7.6,15.4,9c29.2,7.1,54.6-1.5,77.6-19.6C1238.5,317.9,1236.7,311.1,1234.7,303.6z
		 M1385.2,266.7c-1.1-25.8-20.7-43.8-47.3-44.1c-28.7-0.4-52.2,18.7-54,44.1C1317.4,266.7,1351,266.7,1385.2,266.7z"/>
	<path d="M262.6,185.2c18,0,34.8,0,53.1,0c-24.8,66.3-49.4,131.9-74,197.7c-14.6,0-28.8,0-43.4,0c-13.2-38.7-26.4-77.2-40.4-118
		c-14,40.7-27.2,79.3-40.5,118.1c-14.4,0-28.3,0-43.3,0C49.7,317.7,25.1,252,0.3,185.5c18.1,0,35.2,0,53.1,0
		c13.8,39,27.7,78.2,42.2,119.4c14.3-41.1,27.9-80.3,41.5-119.6c13.7,0,27,0,41.5,0c13.3,38.9,26.8,78.2,41.1,120
		C234.5,263.9,248.5,224.7,262.6,185.2z"/>
	<path d="M659.1,371.5c-0.2,4.2-0.4,7.6-0.6,11.3c-16.3,0-32.1,0-48.2,0c0-98.9,0-197.3,0-296.2c16.1,0,31.6,0,48.3,0
		c0,36.8,0,73.4,0,111.4c28.8-17.6,58.1-21.7,88.8-12.9c21.3,6.1,38.2,19.1,51.1,37.1c28.6,39.7,26.2,94.5-5.8,132
		C765.8,385.9,713.7,403.2,659.1,371.5z M658.8,284c0,9.6-0.2,19.1,0.1,28.7c0.1,3.2,1,7,2.9,9.5c14,18.8,40.1,27.7,62.8,21.9
		c23.8-6.1,42-27.2,44.2-51.2c2.7-29.1-10.3-54-33.9-64.6c-23.2-10.5-51.9-4.7-69.7,13.6c-4.7,4.9-7.1,10-6.6,17
		C659.3,267.2,658.8,275.6,658.8,284z"/>
	<path d="M1548.4,382.8c-16.5,0-32.1,0-48,0c0-98.9,0-197.3,0-296.2c16.1,0,31.6,0,48.1,0c0,61.9,0,123.5,0,188
		c30.1-31.1,58.4-60.2,86.6-89.3c20.2,0,40.2,0,62.5,0c-27.3,28.2-53.3,55.1-79.6,82.4c30,38.2,59.6,76.1,90,114.9
		c-21.6,0-42.2,0-63.7,0c-19.6-25.8-39.8-52.3-59.4-78.1c-12.6,11.4-24.7,22.4-36.5,33C1548.4,353.7,1548.4,368.3,1548.4,382.8z"/>
	<path d="M548,303.8c-51.7,0-101.5,0-152.4,0c5.5,20.2,16.7,34.1,36.1,39.5c22.7,6.4,44.3,5.5,61.5-14.9c16.2,0,33,0,50.9,0
		c-3,13.1-10,23.5-19.1,32.4c-29.6,29.3-84,36.2-124.3,16.3c-37.7-18.7-58.8-60.6-54.2-104.2c9.2-86.7,98.8-109.1,151.1-81
		c33.1,17.8,48.3,47.1,50.2,83.8C548.4,284.6,548,293.5,548,303.8z M498.1,266.7c-4.4-31.1-24.3-46.3-56.3-43.9
		c-23.6,1.8-45.4,22.8-45.1,43.9C430.2,266.7,463.8,266.7,498.1,266.7z"/>
	<path d="M1018.8,185.2c17.3,0,33.8,0,51.9,0c-30.7,66.5-61,132.3-91.1,197.8c-14.9,0-29.1,0-43.9,0
		c-30.2-65.6-60.5-131.1-91.1-197.6c18.1,0,34.8,0,52.3,0c20,44.5,40.1,89.3,60.7,135.3C978.4,274.8,998.5,230.2,1018.8,185.2z"/>
</g>
</svg>
