<svg viewBox="0 0 2125.67 533.7" xmlns="http://www.w3.org/2000/svg"><path d="m531.14 397.42c-119.7-12.17-58.08-104.56-34.43-176.29 16.36-44.7 32.88-89.34 49-134.13 2.18-6.08 4.87-8.45 11.53-8.31 22.33.44 44.67.16 68.47.16-26.45 77-56.09 152.63-83.16 229.41-4.23 15.06 1.93 23.28 17.77 23.82 33.64 1.6 37.12-37.79 47.66-61.35 22.23-60.58 44.57-121.12 66.34-181.87 2.92-8.14 6.82-10.45 15.11-10.21 21.35.61 42.73.2 65.44.2-26.6 76-54.9 151.09-82.49 226.72-19.89 64.86-74.7 97.9-141.24 91.85z"/><path d="m291.38 397.42c-119.1-17.84-36.87-146.66-16.65-215.22 10.13-27.55 23.44-53.26 45.09-73.71 48.55-54.15 180.88-51.18 168.11 43.51-11 50.05-32.22 97.67-49.48 145.83-23.51 65.17-76.45 105.4-147.07 99.59zm118.92-243.42c-.84-42.61-44.63-13.14-49.32 10.88-17.23 52.79-43.49 103.86-54.23 158.25-.79 20.95 30 16.57 37.45 3 29.01-53.29 46.26-114.99 66.1-172.13z"/><path d="m1476.78 397.42c-121.51-17.79-36.58-147.4-16.62-217.26 38.76-137.37 234.19-141.82 211-21.37-13.51 49.72-33.27 98-50.86 146.45-20.83 59.95-80.5 98.03-143.52 92.18zm118.48-245.78c.85-26.06-29.82-22.45-39.14-6.16-22.07 39.44-33 84.26-49.69 126.13-3.23 16.88-25.18 49.5-10.21 62.83 6.83 5.14 14.85 4.24 21.74.3 12.24-6.69 19.12-19.54 23.91-32.14 17.32-49.97 39.52-100.19 53.39-150.96z"/><path d="m1933.29 397.42c-70.16-7.16-89.65-50.3-60.23-112.38 2-10.62 63.37-3.15 78-5.26-3.35 17.27-25.1 52.24 4.56 54.76 29.44 1 48.39-45.74 24.74-62.89-10.84-8.94-21.8-17.76-33.12-26.07-31.36-23-43.61-51.48-24.7-97.34 22.51-56.93 82.88-80.82 140.85-75.12 56 4.2 75.05 42.54 54.15 93.56-1.93 8.1-6.05 11.09-14.71 10.71-21.88-.89-42.69 0-64.78-.23 2.62-9.47 4.67-17.47 7-25.36 9.16-48.88-78.88-4.78-32.69 36 13.06 10.25 26.46 20.07 39.45 30.42 15.61 12.44 24.37 28.78 24.48 48.83 2.01 78.1-67.46 134.02-143 130.37z"/><path d="m72.71 397.42c-71.66-9.72-87.48-48.72-59.23-112.42 1.79-10.62 63.54-3.17 77.89-5.27-4 17-25.35 54.61 5.59 54.5 28.86-1.16 47.93-45 22.93-63.38-12.07-9.46-24-19.13-36.2-28.39-67.69-51.74-6.69-151.09 62.42-164.89 71.04-20.57 150.43 10.3 108.89 95.22-3.5 9.06-62.91 2.36-76.91 4.31 2.6-9.06 5.17-16.91 7.08-24.93 7.79-36.66-42.88-21.27-44.76 4.47-7.35 29.63 30.22 41.36 47.59 58.36 21.67 16.1 30.7 37.31 28 64.22-6.21 73.94-71.3 121.56-143.29 118.2z"/><path d="m773 134.08-18.62-1c9-18 24.06-33 35.47-49.81 6.74-9.27 58.76-2.27 74.53-4.27 2.53 52.85 5 104.69 7.48 156.53l3 .6 37.81-101.93-19.09-1.2c47-67.29 26.13-52.79 105-54.14-34.4 100.7-73.09 200-108.63 300.35-2.93 8.1-6.81 10.52-15.14 10.19-17.19-.7-34.43-.21-52.91-.21-4.24-53.57-8.43-106.53-12.63-159.48l-2.4-.58c-19.62 49.58-36.45 100.33-54.67 150.47-2.48 7-5.37 10.21-13.43 9.82-20-.91-38.49-.05-58.8-.23 31.25-85.56 61.92-169.68 93.03-255.11z"/><path d="m1158.13 388.43c35.77-100.43 73.05-200.09 109.07-300.43 2.62-7.22 5.81-9.82 13.58-9.66 40 2.07 81.06-3.61 120.37 5 83 27.6 44.85 123.78-25.2 140.37 61.28 47.72 12.49 142.41-55.86 157.65-52.73 13.07-108.09 7.54-161.96 7.07zm95.6-51.05c43.12 8.38 71.53-23.9 70.11-64.9.6-20.54-22.55-18.67-37.14-18.4-1.68 0-3.92 3.69-4.82 6.08-9.83 26.14-18.56 50.55-28.15 77.22zm48-131.6c36.1 5.49 66.76-21.7 65.61-56.7 1.46-20.63-20.49-19.25-35.21-19-1.49 0-3.75 2.38-4.39 4.13-8.74 23.55-17.19 47.15-26.03 71.57z"/><path d="m923.16 387.49q56.18-153.83 112.7-308.64c49.76 3.7 104.68-10.95 150.08 14.5 45.67 24.65 21.77 75.82 9.1 113.44-58.97 182.37-84.82 188.9-271.88 180.7zm97.35-54c36.87 5.62 54.1-14.77 65-46 14.61-43.71 35.21-85.92 45-131 3.23-16.58-13.39-22.56-27-23.36-7.47-1.31-11.15 1.66-13.83 9.14-22.58 64-46.63 127.14-69.17 191.21z"/><path d="m1809.57 78.85-40.68 112.15 1.91 1.06c28.75-34.82 56-70.92 83.94-106.41 3.93-5.08 8.08-7 14.45-7 26.32.74 51.48-.71 77.93.74-147.12 194.98-130.66 86.43-111.53 309h-82.51q-1.83-68.46-3.66-136.69l-2.11-.73c-17.31 42.5-31.78 86.23-47.6 129.33-2.44 6.87-5.69 9.25-13 9.09-22-.48-44-.17-67.27-.17 35-100.74 73.11-200.23 108.92-300.7 2.76-7.63 6.47-10.06 14.42-9.86 21.7.56 43.4.19 66.79.19z"/></svg>