<svg fill="none" height="28" viewBox="0 0 185 28" width="185" xmlns="http://www.w3.org/2000/svg"><g fill="#fff"><path d="m42.2201.0970532h3.6153l9.4645 23.1430468h-2.9575l-2.9575-7.2842h-11.0433l-2.9221 7.2842h-2.7652zm1.6748 2.1449068c-1.2144 3.17127-2.826 6.79593-3.7798 9.28964l-.9209 2.1997h9.3027l-.9867-2.4912c-1.1486-2.98942-2.3984-5.89165-3.5419-8.99814z"/><path d="m61.4173 23.2401c-2.1049-5.5354-4.3009-11.5242-6.4109-16.99229h3.0587l3.1549 8.96829c.7893 2.1997 1.1182 3.0741 1.905 5.5005h.0658c.7893-2.3293 1.3156-3.4877 2.1049-5.8892l3.0562-8.5771h2.783l-6.5779 16.9923z"/><path d="m74.1277 3.36797v-3.2709168h2.783v3.2709168zm2.7299 2.8798v16.99233h-2.654v-16.99233z"/><path d="m82.0591.0970532h2.7298v23.1430468h-2.7298z"/><path d="m89.9171 3.36797v-3.2709168h2.783v3.2709168zm2.7273 2.8798v16.99233h-2.6615v-16.99233z"/><path d="m111.447 20.6493c0 .8744 0 1.7164.033 2.5908h-2.692v-2.3317c-.789 1.3926-2.464 2.7851-5.421 2.7851-3.9776 0-5.8523-2.526-5.8523-6.8308v-10.61489h2.7223v9.80529c0 3.3681 1.25 5.4806 4.174 5.4806 2.796 0 4.301-2.3293 4.301-5.0496v-10.21387h2.73z"/><path d="m117.792 18.0934c.625 2.1997 1.938 3.4304 4.569 3.4304 2.366 0 3.977-1.1335 3.977-2.8151 0-1.6815-1.414-2.1698-3.65-2.7826l-2.037-.5506c-2.755-.7772-4.898-1.7164-4.898-4.6634 0-3.04177 2.664-4.92011 6.411-4.92011 3.517 0 5.981 1.45734 6.507 4.92011h-2.563c-.493-1.68407-1.743-2.81756-4.01-2.81756-2.368 0-3.618 1.06872-3.618 2.46126 0 1.5196 1.217 2.135 3.454 2.7403l2.168.6153c2.99.8744 4.898 1.9407 4.898 4.661 0 3.3332-2.76 5.2315-6.704 5.2315-3.816 0-6.411-1.6193-7.168-5.5354z"/><path d="m12.1868 24c6.7306 0 12.1868-5.3726 12.1868-12 0-6.62742-5.4562-12-12.1868-12-6.73058 0-12.1868 5.37258-12.1868 12 0 6.6274 5.45622 12 12.1868 12z"/><path d="m154.787 19.5437v1.2062h-6.896v-1.2062h2.715v-9.1148h-2.592v-1.17873h6.651v1.17873h-2.579v9.1148z"/><path d="m165.023 9.25017v11.49973h-1.996l-4.371-9.6905v9.6905h-1.452v-11.49973h2.009l4.357 9.75903v-9.75903z"/><path d="m171.118 20.9143c-2.444 0-4.466-2.0011-4.466-5.8115 0-3.5637 1.778-6.01716 4.506-6.01716 1.028.0108 2.01.42958 2.734 1.16576.724.7361 1.132 1.7305 1.135 2.768h-1.357c-.272-1.4803-.978-2.6179-2.444-2.6179-1.968 0-3.068 2.0696-3.068 4.7698s1.154 4.4546 3.041 4.4546c.359-.0106.712-.093 1.04-.2424.327-.1494.621-.3628.866-.628.245-.2651.436-.5767.56-.9167.125-.3399.182-.7016.168-1.0638h1.357c-.353 2.3438-1.765 4.1393-4.072 4.1393z"/><path d="m172.109 27h-21.218c-1.594.0545-3.183-.2156-4.672-.7942s-2.848-1.4537-3.995-2.5734-2.059-2.461-2.682-3.944-.944-3.0775-.944-4.6884.321-3.2053.944-4.6883c.623-1.48305 1.535-2.82432 2.682-3.944s2.506-1.99485 3.995-2.57341 3.078-.84867 4.672-.79425h21.218c1.594-.05442 3.183.21569 4.672.79425s2.848 1.45373 3.995 2.57341 2.059 2.46095 2.682 3.944c.623 1.483.944 3.0774.944 4.6883s-.321 3.2054-.944 4.6884-1.535 2.8243-2.682 3.944-2.506 1.9948-3.995 2.5734-3.078.8487-4.672.7942zm-21.218-22.95827c-2.88 0-5.642 1.15524-7.679 3.21161-2.036 2.05637-3.18 4.84536-3.18 7.75356 0 2.9081 1.144 5.6972 3.18 7.7535 2.037 2.0564 4.799 3.2117 7.679 3.2117h21.218c2.88 0 5.642-1.1553 7.679-3.2117 2.036-2.0563 3.18-4.8454 3.18-7.7535 0-2.9082-1.144-5.69719-3.18-7.75356-2.037-2.05637-4.799-3.21161-7.679-3.21161z"/></g></svg>