<?xml version="1.0" standalone="no"?>
<!DOCTYPE svg PUBLIC "-//W3C//DTD SVG 20010904//EN"
 "http://www.w3.org/TR/2001/REC-SVG-20010904/DTD/svg10.dtd">
<svg version="1.0" xmlns="http://www.w3.org/2000/svg"
 width="700.000000pt" height="700.000000pt" viewBox="0 0 700.000000 700.000000"
 preserveAspectRatio="xMidYMid meet">
<metadata>
Created by potrace 1.14, written by Peter Selinger 2001-2017
</metadata>
<g transform="translate(0.000000,700.000000) scale(0.100000,-0.100000)"
fill="#000000" stroke="none">
<path d="M1700 5332 c-40 -3 -200 -28 -245 -37 -157 -32 -358 -109 -535 -206
-49 -27 -186 -122 -240 -167 -339 -280 -560 -649 -647 -1081 -35 -171 -40
-429 -12 -609 10 -68 21 -127 24 -132 2 -4 7 -25 11 -45 8 -55 70 -227 115
-324 272 -584 832 -984 1479 -1058 86 -10 3593 -10 3690 0 41 4 89 10 105 13
350 63 638 194 894 409 282 237 485 544 587 894 30 101 27 90 50 222 20 112
26 397 10 519 -73 593 -461 1139 -1001 1408 -159 79 -364 149 -491 167 -21 3
-61 11 -89 17 -37 9 -531 12 -1860 13 -995 0 -1826 -1 -1845 -3z m3745 -176
c104 -21 314 -83 332 -98 7 -6 13 -7 13 -4 0 15 259 -127 341 -187 296 -212
512 -504 623 -838 33 -100 64 -226 72 -299 12 -106 14 -144 13 -235 0 -55 -1
-107 -1 -115 0 -14 -6 -58 -23 -175 -10 -64 -43 -189 -71 -267 -189 -524 -637
-929 -1179 -1067 -204 -51 -153 -50 -2110 -47 l-1820 2 -116 26 c-229 52 -416
128 -588 241 -395 259 -651 639 -743 1101 -29 146 -31 441 -5 585 20 108 61
257 86 316 10 22 26 60 37 85 10 25 39 82 64 127 224 408 627 716 1075 822
214 51 144 49 2090 47 1708 -2 1826 -3 1910 -20z"/>
<path d="M4948 4405 c-1 -1 -22 -5 -46 -9 -176 -24 -330 -124 -437 -287 -75
-111 -134 -277 -152 -423 -10 -74 -10 -322 -1 -391 40 -313 200 -553 434 -652
28 -12 66 -25 85 -28 19 -3 50 -10 70 -14 113 -25 310 14 416 84 145 96 253
272 289 473 14 77 24 69 -92 69 -71 1 -104 -3 -105 -11 -4 -63 -40 -173 -77
-236 -141 -243 -501 -252 -670 -16 -92 128 -135 294 -134 519 2 432 189 717
472 718 182 1 302 -103 364 -316 10 -33 19 -65 21 -71 2 -7 41 -11 110 -11
l106 0 -6 51 c-15 116 -72 253 -144 342 -80 101 -219 182 -337 198 -63 9 -161
15 -166 11z"/>
<path d="M1414 4375 c-8 -7 -12 -36 -11 -90 l2 -80 200 -5 200 -5 0 -695 0
-695 -207 1 c-181 0 -208 -2 -212 -15 -3 -9 -5 -51 -4 -93 l0 -78 537 0 536 0
-1 88 c-1 48 -2 90 -3 93 0 3 -90 5 -198 5 -127 -1 -200 3 -207 10 -8 7 -11
220 -10 695 l1 684 201 3 201 2 -2 92 -2 91 -504 1 c-322 1 -509 -3 -517 -9z"/>
<path d="M2832 3499 l3 -882 100 1 c55 0 105 1 111 1 8 1 11 200 12 714 0 391
1 723 1 737 1 23 35 -44 133 -260 11 -25 43 -94 70 -155 28 -60 63 -137 78
-170 36 -76 80 -172 118 -255 72 -157 132 -289 157 -345 15 -33 42 -91 59
-130 18 -38 39 -85 47 -102 7 -18 21 -33 29 -34 57 -3 283 2 290 6 6 4 10 340
10 881 l0 874 -113 0 -113 0 1 -740 c0 -407 -1 -740 -3 -740 -3 0 -28 53 -172
370 -57 124 -115 252 -130 286 -16 33 -82 179 -148 325 -66 145 -136 300 -157
344 -20 44 -44 97 -52 118 l-15 37 -159 0 -159 0 2 -881z"/>
</g>
</svg>
